HIERARCHY
ROOT Hips
{
	OFFSET -3.958830 18.904000 13.208200
	CHANNELS 6 Xposition Yposition Zposition Zrotation Yrotation Xrotation 
	JOINT LHipJoint
	{
		OFFSET 0.000000 0.000000 0.000000
		CHANNELS 3 Zrotation Yrotation Xrotation
		JOINT LeftUpLeg
		{
			OFFSET 1.800000 -1.400000 0.085000
			CHANNELS 3 Zrotation Yrotation Xrotation
			JOINT LeftLeg
			{
				OFFSET 2.215000 -6.000000 0.000000
				CHANNELS 3 Zrotation Yrotation Xrotation
				JOINT LeftFoot
				{
					OFFSET 2.500000 -6.900000 0.000000
					CHANNELS 3 Zrotation Yrotation Xrotation
					JOINT LeftToeBase
					{
						OFFSET 0.200000 -0.500000 1.950000
						CHANNELS 3 Zrotation Yrotation Xrotation
						End Site
						{
							OFFSET 0.000000 0.000000 0.000000
						}
					}
				}
			}
		}
	}
	JOINT RHipJoint
	{
		OFFSET 0.000000 0.000000 0.000000
		CHANNELS 3 Zrotation Yrotation Xrotation
		JOINT RightUpLeg
		{
			OFFSET -1.800000 -1.400000 0.085000
			CHANNELS 3 Zrotation Yrotation Xrotation
			JOINT RightLeg
			{
				OFFSET -2.215000 -6.000000 0.000000
				CHANNELS 3 Zrotation Yrotation Xrotation
				JOINT RightFoot
				{
					OFFSET -2.500000 -6.900000 0.000000
					CHANNELS 3 Zrotation Yrotation Xrotation
					JOINT RightToeBase
					{
						OFFSET -0.200000 -0.500000 1.950000
						CHANNELS 3 Zrotation Yrotation Xrotation
						End Site
						{
							OFFSET 0.000000 0.000000 0.000000
						}
					}
				}
			}
		}
	}
	JOINT LowerBack
	{
		OFFSET 0.000000 0.000000 0.000000
		CHANNELS 3 Zrotation Yrotation Xrotation
		JOINT Spine
		{
			OFFSET -0.087000 1.940000 -0.288900
			CHANNELS 3 Zrotation Yrotation Xrotation
			JOINT Spine1
			{
				OFFSET 0.000000 1.950000 0.060000
				CHANNELS 3 Zrotation Yrotation Xrotation
				JOINT Neck
				{
					OFFSET 0.000000 0.000000 0.000000
					CHANNELS 3 Zrotation Yrotation Xrotation
					JOINT Neck1
					{
						OFFSET 0.000000 1.600000 0.340000
						CHANNELS 3 Zrotation Yrotation Xrotation
						JOINT Head
						{
							OFFSET 0.000000 1.667000 -0.240000
							CHANNELS 3 Zrotation Yrotation Xrotation
							End Site
							{
								OFFSET 0.000000 0.000000 0.000000
							}
						}
					}
				}
				JOINT LeftShoulder
				{
					OFFSET 0.000000 0.000000 0.000000
					CHANNELS 3 Zrotation Yrotation Xrotation
					JOINT LeftArm
					{
						OFFSET 2.700000 1.550000 -0.730000
						CHANNELS 3 Zrotation Yrotation Xrotation
						JOINT LeftForeArm
						{
							OFFSET 5.450000 0.000000 0.000000
							CHANNELS 3 Zrotation Yrotation Xrotation
							JOINT LeftHand
							{
								OFFSET 3.450000 0.000000 0.000000
								CHANNELS 3 Zrotation Yrotation Xrotation
								JOINT LeftHandIndex1
								{
									OFFSET 0.750000 0.000000 0.000000
									CHANNELS 3 Zrotation Yrotation Xrotation
									End Site
									{
										OFFSET 0.000000 0.000000 0.000000
									}
								}
							}
						}
					}
				}
				JOINT RightShoulder
				{
					OFFSET 0.000000 0.000000 0.000000
					CHANNELS 3 Zrotation Yrotation Xrotation
					JOINT RightArm
					{
						OFFSET -2.700000 1.550000 -0.730000
						CHANNELS 3 Zrotation Yrotation Xrotation
						JOINT RightForeArm
						{
							OFFSET -5.450000 0.000000 0.000000
							CHANNELS 3 Zrotation Yrotation Xrotation
							JOINT RightHand
							{
								OFFSET -3.450000 0.000000 0.000000
								CHANNELS 3 Zrotation Yrotation Xrotation
								JOINT RightHandIndex1
								{
									OFFSET -0.750000 0.000000 0.000000
									CHANNELS 3 Zrotation Yrotation Xrotation
									End Site
									{
										OFFSET 0.000000 0.000000 0.000000
									}
								}
							}
						}
					}
				}
			}
		}
	}
}
MOTION
Frames: 4
Frame Time: 0.016667
-1.512590 17.126870 0.527760 -3.799637 -4.879858 -1.102744 -15.804716 9.645044 7.327206 43.190758 -1.864214 -34.277338 -47.840130 20.970854 24.073302 0.991803 12.072692 0.389585 -0.561780 -0.798890 -0.472620 18.439637 -7.261298 3.125892 -26.466263 7.556536 -33.681696 20.886575 -21.350503 49.127320 -1.438714 -9.648813 0.924161 -0.631540 0.625060 0.251910 -3.184640 -3.049145 -10.351690 14.683662 -8.559371 61.111056 -8.409361 0.989436 -11.459458 5.231910 -6.224005 -10.691368 -17.217827 7.493998 46.817511 0.598090 0.533010 -24.561020 -13.706671 2.455335 -0.727706 -48.798858 -0.042229 -12.939519 -21.590183 -53.296230 6.167395 -3.659719 2.656086 1.044320 -0.062200 0.135750 -0.056390 3.340169 4.218125 8.170684 69.602950 -6.343428 -24.868561 33.104702 64.347899 14.148236 2.049840 -0.978709 -0.467700 0.557580 0.728850 0.025110 
-1.498910 17.090280 0.537240 -3.743658 -5.004879 -1.294844 -15.833958 9.620187 7.377987 43.767732 -1.858383 -34.045806 -48.946818 21.206467 23.825439 1.047897 12.112159 0.380085 -0.537610 -0.762690 -0.474160 18.426557 -7.202459 3.119618 -26.544005 7.448465 -33.969952 20.377247 -21.571171 50.138230 -1.485091 -9.798689 0.882474 -0.625510 0.604550 0.267420 -3.130405 -3.136827 -10.390296 13.932111 -8.213934 61.343348 -7.967312 1.064720 -11.553196 5.221547 -6.154263 -10.807850 -17.204070 7.239410 46.797824 0.368330 0.460280 -24.708950 -13.346439 2.384081 -0.599890 -49.353394 -0.324025 -13.032741 -20.633579 -54.336078 5.895008 -3.633027 2.698049 1.036690 -0.068320 0.151340 -0.041850 3.091158 4.321064 8.277442 70.391303 -6.435323 -25.153905 32.708727 64.815052 14.081464 2.041848 -1.014101 -0.438050 0.529190 0.709180 0.034000 
-1.472870 17.039750 0.558040 -3.825011 -5.396540 -2.001793 -15.858131 9.606082 7.429989 44.647058 -1.867581 -33.178391 -50.521799 21.595593 23.525155 1.122013 12.181515 0.346598 -0.495260 -0.711140 -0.437520 18.415282 -7.192676 3.063924 -26.231763 7.390882 -34.046881 18.926827 -21.652475 52.153610 -1.550601 -9.993949 0.807671 -0.614990 0.555300 0.290300 -3.091077 -3.175388 -10.412048 12.946697 -7.831395 61.774692 -7.478066 1.054026 -11.073315 5.121673 -6.182339 -11.112421 -17.706405 7.112990 47.211479 0.550990 0.162760 -25.578320 -13.088768 1.444971 -0.220019 -50.071175 -1.087190 -13.478658 -16.969144 -56.166293 4.232095 -3.589968 2.726748 1.033500 -0.093980 0.185840 -0.049670 3.158948 5.250338 8.512294 71.381183 -6.175480 -25.909759 30.688210 66.107886 13.190293 2.041549 -1.040475 -0.391370 0.490270 0.684990 0.036150 
-1.447170 17.004600 0.585510 -3.906084 -5.432660 -3.131962 -15.860089 9.654157 7.443842 45.154861 -2.175543 -32.224915 -51.472063 22.048140 23.803006 1.176736 12.249342 0.305005 -0.446880 -0.648540 -0.407740 18.404002 -7.299230 2.933468 -25.556814 7.144793 -33.356860 17.068079 -21.373935 53.987812 -1.598626 -10.110993 0.755176 -0.592630 0.509030 0.316700 -3.071218 -3.158792 -10.380961 11.686959 -7.505304 62.300081 -6.905758 0.780151 -10.309469 4.863223 -6.033179 -11.370012 -17.605555 7.267057 47.397069 0.918260 0.486680 -26.415710 -12.523026 0.334294 0.345663 -50.551095 -1.790234 -14.086974 -13.310591 -58.893809 2.405738 -3.543581 2.774009 1.032070 -0.114370 0.221420 -0.048890 3.198597 6.041358 8.561432 72.121610 -5.364404 -26.223342 29.285914 66.960455 12.401997 2.043496 -1.073267 -0.348510 0.449250 0.659050 0.037150 
